<svg xmlns="http://www.w3.org/2000/svg" xmlns:xlink="http://www.w3.org/1999/xlink" width="794" zoomAndPan="magnify" viewBox="0 0 594.95996 842.24997" height="1123" preserveAspectRatio="xMidYMid meet" version="1.0"><path fill="#704736" d="M 268.179688 209.859375 C 167.300781 221.039062 85.09375 302.441406 72.921875 403.167969 C 72.527344 406.328125 72.203125 409.5 71.945312 412.675781 C 71.6875 415.851562 71.496094 419.03125 71.375 422.214844 C 71.253906 425.398438 71.199219 428.585938 71.214844 431.769531 C 71.230469 434.957031 71.3125 438.140625 71.464844 441.324219 C 71.617188 444.507812 71.835938 447.6875 72.125 450.859375 C 72.410156 454.03125 72.769531 457.199219 73.191406 460.355469 C 73.613281 463.515625 74.105469 466.664062 74.664062 469.800781 C 75.222656 472.9375 75.847656 476.058594 76.539062 479.171875 C 77.230469 482.28125 77.988281 485.375 78.816406 488.453125 C 79.640625 491.53125 80.53125 494.589844 81.484375 497.628906 C 82.441406 500.667969 83.460938 503.6875 84.546875 506.683594 C 85.632812 509.679688 86.78125 512.652344 87.996094 515.597656 C 89.207031 518.542969 90.480469 521.464844 91.820312 524.355469 C 93.15625 527.246094 94.554688 530.109375 96.015625 532.941406 C 97.476562 535.773438 98.996094 538.574219 100.578125 541.339844 C 102.15625 544.109375 103.796875 546.839844 105.492188 549.535156 C 107.191406 552.234375 108.945312 554.890625 110.757812 557.511719 C 112.570312 560.136719 114.433594 562.714844 116.355469 565.257812 C 118.277344 567.800781 120.253906 570.300781 122.285156 572.753906 C 124.3125 575.210938 126.394531 577.625 128.527344 579.992188 C 130.660156 582.359375 132.839844 584.679688 135.074219 586.957031 C 137.304688 589.230469 139.585938 591.457031 141.910156 593.632812 C 144.238281 595.808594 146.613281 597.933594 149.03125 600.007812 C 151.449219 602.082031 153.910156 604.105469 156.414062 606.074219 C 158.921875 608.042969 161.464844 609.957031 164.054688 611.820312 C 166.640625 613.679688 169.265625 615.484375 171.929688 617.230469 C 174.59375 618.976562 177.296875 620.667969 180.03125 622.300781 C 182.769531 623.933594 185.539062 625.503906 188.34375 627.019531 C 191.148438 628.53125 193.984375 629.984375 196.851562 631.375 C 199.71875 632.765625 202.613281 634.097656 205.535156 635.363281 C 208.460938 636.632812 211.410156 637.835938 214.382812 638.976562 C 217.359375 640.117188 220.355469 641.195312 223.378906 642.207031 C 234.511719 643.988281 238.070312 637.089844 238.070312 631.089844 L 238.070312 593.484375 C 176.449219 606.871094 163.332031 563.6875 163.332031 563.6875 C 153.125 537.875 138.636719 530.980469 138.636719 530.980469 C 118.386719 517.183594 140.210938 517.640625 140.210938 517.640625 C 162.449219 519.214844 174.246094 540.554688 174.246094 540.554688 C 193.597656 574.363281 226.292969 564.347656 238.96875 559.011719 C 240.96875 544.554688 246.84375 534.757812 252.984375 529.199219 C 203.519531 523.640625 151.757812 504.507812 151.757812 419.765625 C 151.757812 395.074219 160.210938 375.277344 174.667969 359.480469 C 172.449219 353.921875 164.652344 330.789062 176.890625 300.757812 C 176.890625 300.757812 195.582031 294.742188 238.070312 323.449219 C 247.136719 321.007812 256.324219 319.171875 265.632812 317.941406 C 274.941406 316.710938 284.289062 316.097656 293.679688 316.097656 C 303.066406 316.097656 312.414062 316.710938 321.722656 317.941406 C 331.03125 319.171875 340.21875 321.007812 349.285156 323.449219 C 391.804688 294.742188 410.464844 300.757812 410.464844 300.757812 C 422.6875 330.789062 414.90625 353.921875 412.6875 359.480469 C 427.144531 375.230469 435.601562 395.074219 435.601562 419.765625 C 435.601562 504.726562 383.535156 523.421875 333.945312 528.980469 C 341.945312 535.875 349.285156 549.453125 349.285156 570.128906 L 349.285156 631.089844 C 349.285156 637.089844 352.84375 644.207031 364.199219 642.207031 C 367.421875 641.128906 370.621094 639.972656 373.792969 638.746094 C 376.964844 637.519531 380.105469 636.21875 383.21875 634.847656 C 386.332031 633.476562 389.410156 632.035156 392.457031 630.523438 C 395.503906 629.011719 398.511719 627.429688 401.484375 625.78125 C 404.460938 624.132812 407.394531 622.414062 410.289062 620.628906 C 413.183594 618.84375 416.035156 616.996094 418.847656 615.078125 C 421.65625 613.164062 424.421875 611.1875 427.140625 609.144531 C 429.863281 607.101562 432.53125 605 435.15625 602.835938 C 437.777344 600.671875 440.351562 598.449219 442.871094 596.164062 C 445.394531 593.882812 447.863281 591.542969 450.277344 589.148438 C 452.691406 586.753906 455.046875 584.304688 457.351562 581.800781 C 459.652344 579.296875 461.894531 576.742188 464.082031 574.136719 C 466.265625 571.53125 468.390625 568.875 470.453125 566.171875 C 472.515625 563.46875 474.515625 560.71875 476.453125 557.925781 C 478.390625 555.128906 480.265625 552.292969 482.070312 549.410156 C 483.878906 546.53125 485.617188 543.609375 487.292969 540.648438 C 488.964844 537.6875 490.570312 534.691406 492.105469 531.65625 C 493.644531 528.621094 495.109375 525.554688 496.503906 522.453125 C 497.898438 519.351562 499.222656 516.21875 500.476562 513.058594 C 501.726562 509.898438 502.90625 506.707031 504.011719 503.492188 C 505.117188 500.277344 506.148438 497.035156 507.109375 493.773438 C 508.066406 490.507812 508.949219 487.226562 509.753906 483.921875 C 510.5625 480.617188 511.292969 477.296875 511.949219 473.960938 C 512.601562 470.625 513.179688 467.273438 513.683594 463.910156 C 514.183594 460.546875 514.605469 457.171875 514.953125 453.789062 C 515.300781 450.40625 515.570312 447.015625 515.761719 443.621094 C 515.953125 440.226562 516.066406 436.828125 516.101562 433.425781 C 516.136719 430.027344 516.097656 426.628906 515.976562 423.226562 C 515.855469 419.828125 515.660156 416.4375 515.382812 413.046875 C 515.109375 409.65625 514.753906 406.273438 514.324219 402.902344 C 513.894531 399.527344 513.386719 396.164062 512.800781 392.816406 C 512.21875 389.464844 511.554688 386.128906 510.820312 382.808594 C 510.082031 379.492188 509.269531 376.1875 508.378906 372.90625 C 507.492188 369.625 506.527344 366.363281 505.492188 363.125 C 504.453125 359.886719 503.339844 356.671875 502.15625 353.484375 C 500.96875 350.296875 499.714844 347.136719 498.382812 344.007812 C 497.054688 340.878906 495.652344 337.78125 494.179688 334.714844 C 492.707031 331.648438 491.167969 328.617188 489.554688 325.625 C 487.945312 322.628906 486.265625 319.671875 484.519531 316.753906 C 482.773438 313.835938 480.960938 310.957031 479.085938 308.121094 C 477.207031 305.289062 475.265625 302.496094 473.257812 299.75 C 471.253906 297.003906 469.183594 294.304688 467.054688 291.652344 C 464.925781 289.003906 462.738281 286.402344 460.488281 283.851562 C 458.238281 281.296875 455.933594 278.800781 453.570312 276.355469 C 451.207031 273.910156 448.789062 271.519531 446.316406 269.183594 C 443.84375 266.847656 441.316406 264.574219 438.742188 262.351562 C 436.164062 260.132812 433.539062 257.976562 430.859375 255.875 C 428.183594 253.777344 425.460938 251.742188 422.691406 249.769531 C 419.925781 247.792969 417.109375 245.882812 414.253906 244.039062 C 411.398438 242.195312 408.5 240.414062 405.5625 238.703125 C 402.621094 236.992188 399.648438 235.347656 396.632812 233.769531 C 393.621094 232.195312 390.570312 230.6875 387.488281 229.253906 C 384.40625 227.816406 381.292969 226.449219 378.148438 225.15625 C 375 223.863281 371.828125 222.644531 368.628906 221.496094 C 365.425781 220.347656 362.199219 219.273438 358.949219 218.273438 C 355.699219 217.273438 352.429688 216.347656 349.136719 215.496094 C 345.84375 214.644531 342.53125 213.871094 339.203125 213.171875 C 335.875 212.472656 332.53125 211.851562 329.175781 211.304688 C 325.820312 210.757812 322.453125 210.292969 319.074219 209.898438 C 315.695312 209.507812 312.308594 209.195312 308.917969 208.957031 C 305.523438 208.722656 302.128906 208.5625 298.730469 208.484375 C 295.328125 208.402344 291.929688 208.398438 288.527344 208.476562 C 285.128906 208.550781 281.730469 208.703125 278.339844 208.933594 C 274.945312 209.164062 271.558594 209.472656 268.179688 209.859375 Z M 268.179688 209.859375 " fill-opacity="1" fill-rule="nonzero"/></svg>