<svg xmlns="http://www.w3.org/2000/svg" xmlns:xlink="http://www.w3.org/1999/xlink" width="794" zoomAndPan="magnify" viewBox="0 0 594.95996 842.24997" height="1123" preserveAspectRatio="xMidYMid meet" version="1.0"><defs><clipPath id="226932d3d6"><path d="M 59.71875 182.671875 L 535.515625 182.671875 L 535.515625 658.46875 L 59.71875 658.46875 Z M 59.71875 182.671875 " clip-rule="nonzero"/></clipPath><clipPath id="9c819a9be6"><path d="M 297.617188 182.671875 C 166.230469 182.671875 59.71875 289.183594 59.71875 420.570312 C 59.71875 551.957031 166.230469 658.46875 297.617188 658.46875 C 429.003906 658.46875 535.515625 551.957031 535.515625 420.570312 C 535.515625 289.183594 429.003906 182.671875 297.617188 182.671875 Z M 297.617188 182.671875 " clip-rule="nonzero"/></clipPath><clipPath id="ebbc63252a"><path d="M 141.382812 262.492188 L 459 262.492188 L 459 580 L 141.382812 580 Z M 141.382812 262.492188 " clip-rule="nonzero"/></clipPath></defs><g clip-path="url(#226932d3d6)"><g clip-path="url(#9c819a9be6)"><path fill="#704736" d="M 59.71875 182.671875 L 535.515625 182.671875 L 535.515625 658.46875 L 59.71875 658.46875 Z M 59.71875 182.671875 " fill-opacity="1" fill-rule="nonzero"/></g></g><g clip-path="url(#ebbc63252a)"><path fill="#f5f5f5" d="M 300.015625 291.109375 C 342.367188 291.109375 347.375 291.246094 364.136719 292.011719 C 379.574219 292.707031 387.988281 295.28125 393.621094 297.507812 C 400.992188 300.359375 406.277344 303.835938 411.84375 309.398438 C 417.40625 314.960938 420.8125 320.246094 423.734375 327.621094 C 425.890625 333.183594 428.464844 341.597656 429.230469 357.105469 C 429.992188 373.867188 430.132812 378.875 430.132812 421.226562 C 430.132812 463.578125 429.992188 468.585938 429.230469 485.347656 C 428.535156 500.785156 425.960938 509.199219 423.734375 514.832031 C 420.882812 522.207031 417.40625 527.492188 411.84375 533.054688 C 406.277344 538.617188 400.992188 542.027344 393.621094 544.945312 C 388.058594 547.101562 379.644531 549.675781 364.136719 550.441406 C 347.375 551.207031 342.367188 551.34375 300.015625 551.34375 C 257.664062 551.34375 252.65625 551.207031 235.894531 550.441406 C 220.457031 549.746094 212.042969 547.171875 206.40625 544.945312 C 199.035156 542.09375 193.75 538.617188 188.1875 533.054688 C 182.625 527.492188 179.214844 522.207031 176.296875 514.832031 C 174.140625 509.269531 171.566406 500.855469 170.800781 485.347656 C 170.035156 468.585938 169.898438 463.578125 169.898438 421.226562 C 169.898438 378.875 170.035156 373.867188 170.800781 357.105469 C 171.496094 341.667969 174.070312 333.253906 176.296875 327.621094 C 179.148438 320.246094 182.625 314.960938 188.1875 309.398438 C 193.75 303.835938 199.035156 300.429688 206.40625 297.507812 C 211.972656 295.351562 220.386719 292.777344 235.894531 292.011719 C 252.65625 291.246094 257.664062 291.109375 300.015625 291.109375 M 300.015625 262.527344 C 256.898438 262.527344 251.542969 262.734375 234.574219 263.5 C 217.675781 264.265625 206.128906 266.976562 196.046875 270.871094 C 185.613281 274.90625 176.78125 280.328125 167.949219 289.160156 C 159.1875 297.992188 153.761719 306.824219 149.730469 317.257812 C 145.835938 327.339844 143.121094 338.886719 142.359375 355.785156 C 141.59375 372.683594 141.382812 378.109375 141.382812 421.15625 C 141.382812 464.273438 141.59375 469.628906 142.359375 486.597656 C 143.121094 503.496094 145.835938 515.042969 149.730469 525.125 C 153.761719 535.558594 159.1875 544.390625 168.019531 553.222656 C 176.851562 562.054688 185.683594 567.480469 196.117188 571.511719 C 206.199219 575.40625 217.742188 578.121094 234.644531 578.882812 C 251.542969 579.648438 256.96875 579.859375 300.085938 579.859375 C 343.203125 579.859375 348.558594 579.648438 365.527344 578.882812 C 382.425781 578.121094 393.96875 575.40625 404.054688 571.511719 C 414.484375 567.480469 423.316406 562.054688 432.148438 553.222656 C 440.980469 544.390625 446.40625 535.558594 450.441406 525.125 C 454.335938 515.042969 457.046875 503.496094 457.8125 486.597656 C 458.578125 469.699219 458.785156 464.273438 458.785156 421.15625 C 458.785156 378.039062 458.578125 372.683594 457.8125 355.714844 C 457.046875 338.816406 454.335938 327.273438 450.441406 317.1875 C 446.40625 306.757812 440.980469 297.925781 432.148438 289.09375 C 423.316406 280.261719 414.484375 274.835938 404.054688 270.800781 C 393.96875 266.90625 382.425781 264.195312 365.527344 263.429688 C 348.558594 262.734375 343.132812 262.527344 300.015625 262.527344 " fill-opacity="1" fill-rule="nonzero"/></g><path fill="#f5f5f5" d="M 300.015625 339.71875 C 255.019531 339.71875 218.578125 376.160156 218.578125 421.15625 C 218.578125 466.152344 255.089844 502.664062 300.085938 502.664062 C 345.078125 502.664062 381.589844 466.222656 381.589844 421.15625 C 381.519531 376.160156 345.011719 339.71875 300.015625 339.71875 M 300.015625 474.082031 C 270.804688 474.082031 247.160156 450.433594 247.160156 421.226562 C 247.160156 392.019531 270.804688 368.371094 300.015625 368.371094 C 329.222656 368.371094 352.867188 392.019531 352.867188 421.226562 C 352.9375 450.367188 329.222656 474.082031 300.015625 474.082031 " fill-opacity="1" fill-rule="nonzero"/><path fill="#f5f5f5" d="M 403.777344 336.519531 C 403.777344 347.023438 395.222656 355.578125 384.71875 355.578125 C 374.21875 355.578125 365.664062 347.023438 365.664062 336.519531 C 365.664062 326.019531 374.21875 317.464844 384.71875 317.464844 C 395.222656 317.464844 403.777344 325.949219 403.777344 336.519531 " fill-opacity="1" fill-rule="nonzero"/></svg>