<svg xmlns="http://www.w3.org/2000/svg" xmlns:xlink="http://www.w3.org/1999/xlink" width="794" zoomAndPan="magnify" viewBox="0 0 594.95996 842.24997" height="1123" preserveAspectRatio="xMidYMid meet" version="1.0"><defs><clipPath id="02480e0afb"><path d="M 59.71875 182.671875 L 535.546875 182.671875 L 535.546875 658.5 L 59.71875 658.5 Z M 59.71875 182.671875 " clip-rule="nonzero"/></clipPath></defs><g clip-path="url(#02480e0afb)"><path fill="#81523e" d="M 297.613281 182.671875 C 166.207031 182.671875 59.71875 289.160156 59.71875 420.566406 C 59.71875 551.976562 166.207031 658.464844 297.613281 658.464844 C 429.023438 658.464844 535.511719 551.976562 535.511719 420.566406 C 535.304688 289.160156 428.816406 182.671875 297.613281 182.671875 Z M 227.789062 547.238281 L 171.972656 547.238281 L 171.972656 367.222656 L 227.789062 367.222656 Z M 199.984375 343.328125 C 182.066406 343.328125 167.441406 328.703125 167.441406 310.785156 C 167.441406 292.867188 182.066406 278.242188 199.984375 278.242188 C 217.90625 278.242188 232.527344 292.867188 232.527344 310.785156 C 232.527344 328.703125 217.90625 343.328125 199.984375 343.328125 Z M 437.46875 547.238281 L 381.652344 547.238281 L 381.652344 457.230469 C 381.652344 444.460938 381.652344 412.742188 353.226562 412.742188 C 320.890625 412.742188 318.828125 445.488281 318.828125 445.488281 L 318.828125 547.238281 L 263.21875 547.238281 L 263.21875 367.222656 L 319.035156 367.222656 L 319.035156 391.9375 C 332.21875 365.160156 359.40625 363.101562 377.121094 363.101562 C 397.304688 363.101562 415.429688 370.929688 425.726562 388.230469 C 434.585938 402.855469 437.46875 424.070312 437.46875 457.230469 Z M 437.46875 547.238281 " fill-opacity="1" fill-rule="nonzero"/></g></svg>