<svg xmlns="http://www.w3.org/2000/svg" xmlns:xlink="http://www.w3.org/1999/xlink" width="1920" zoomAndPan="magnify" viewBox="0 0 1440 809.999993" height="1080" preserveAspectRatio="xMidYMid meet" version="1.0"><path fill="#ce926c" d="M 663.621094 598.449219 C 658.5625 598.453125 653.507812 598.296875 648.457031 597.992188 C 643.40625 597.683594 638.371094 597.21875 633.347656 596.601562 C 628.324219 595.984375 623.324219 595.214844 618.351562 594.289062 C 613.375 593.367188 608.433594 592.292969 603.523438 591.0625 C 598.617188 589.835938 593.75 588.460938 588.925781 586.933594 C 584.101562 585.40625 579.328125 583.734375 574.605469 581.914062 C 569.882812 580.09375 565.222656 578.132812 560.621094 576.027344 C 556.019531 573.921875 551.488281 571.675781 547.023438 569.292969 C 542.5625 566.910156 538.175781 564.390625 533.867188 561.738281 C 529.558594 559.085938 525.335938 556.300781 521.195312 553.390625 C 517.058594 550.476562 513.015625 547.441406 509.0625 544.277344 C 505.113281 541.117188 501.261719 537.839844 497.511719 534.441406 C 493.761719 531.046875 490.117188 527.535156 486.582031 523.914062 C 483.050781 520.292969 479.628906 516.570312 476.324219 512.738281 C 473.015625 508.90625 469.832031 504.976562 466.765625 500.953125 C 463.703125 496.925781 460.765625 492.808594 457.953125 488.601562 C 455.140625 484.394531 452.460938 480.105469 449.910156 475.734375 C 447.363281 471.363281 444.949219 466.917969 442.675781 462.398438 C 440.398438 457.878906 438.265625 453.292969 436.269531 448.644531 C 434.277344 443.992188 432.425781 439.285156 430.722656 434.523438 C 429.015625 429.757812 427.457031 424.945312 426.046875 420.085938 C 424.640625 415.226562 423.378906 410.328125 422.269531 405.390625 C 421.160156 400.453125 420.203125 395.488281 419.402344 390.492188 C 418.597656 385.496094 417.945312 380.480469 417.449219 375.445312 C 416.953125 370.410156 416.613281 365.363281 416.425781 360.304688 C 416.242188 355.25 416.210938 350.191406 416.332031 345.132812 C 416.457031 340.074219 416.738281 335.023438 417.171875 329.984375 C 417.605469 324.941406 418.195312 319.917969 418.9375 314.914062 C 419.679688 309.90625 420.574219 304.929688 421.625 299.980469 C 422.671875 295.03125 423.871094 290.117188 425.222656 285.238281 C 426.570312 280.363281 428.070312 275.53125 429.714844 270.746094 C 431.363281 265.964844 433.15625 261.234375 435.089844 256.558594 C 437.027344 251.882812 439.105469 247.273438 441.328125 242.726562 C 443.546875 238.179688 445.90625 233.703125 448.398438 229.300781 C 450.894531 224.898438 453.523438 220.578125 456.28125 216.335938 C 459.042969 212.097656 461.929688 207.945312 464.945312 203.878906 C 467.960938 199.816406 471.097656 195.847656 474.355469 191.976562 C 477.613281 188.105469 480.988281 184.339844 484.476562 180.675781 C 487.96875 177.011719 491.566406 173.457031 495.277344 170.015625 C 498.984375 166.574219 502.792969 163.246094 506.707031 160.039062 C 510.617188 156.828125 514.625 153.742188 518.726562 150.78125 C 522.828125 147.816406 527.019531 144.980469 531.292969 142.277344 C 535.570312 139.570312 539.925781 137 544.359375 134.558594 C 548.792969 132.121094 553.296875 129.820312 557.871094 127.660156 C 562.445312 125.496094 567.082031 123.476562 571.78125 121.601562 C 576.480469 119.722656 581.234375 117.992188 586.039062 116.40625 C 590.84375 114.820312 595.695312 113.386719 600.585938 112.097656 C 605.480469 110.808594 610.410156 109.671875 615.371094 108.6875 C 620.335938 107.703125 625.324219 106.871094 630.339844 106.191406 C 635.351562 105.515625 640.382812 104.988281 645.429688 104.621094 C 650.476562 104.25 655.53125 104.035156 660.589844 103.976562 C 665.648438 103.914062 670.707031 104.011719 675.761719 104.261719 C 680.8125 104.511719 685.855469 104.917969 690.882812 105.480469 C 695.914062 106.039062 700.921875 106.753906 705.90625 107.621094 C 710.890625 108.488281 715.84375 109.507812 720.765625 110.679688 C 725.6875 111.851562 730.570312 113.175781 735.414062 114.644531 C 740.253906 116.117188 745.046875 117.738281 749.789062 119.503906 C 754.527344 121.269531 759.210938 123.179688 763.835938 125.230469 C 768.460938 127.285156 773.019531 129.476562 777.507812 131.8125 C 782 134.144531 786.414062 136.613281 790.753906 139.21875 C 795.089844 141.820312 799.34375 144.554688 803.515625 147.421875 C 807.6875 150.285156 811.765625 153.277344 815.75 156.394531 C 819.738281 159.507812 823.625 162.746094 827.414062 166.097656 C 831.203125 169.453125 834.886719 172.921875 838.460938 176.5 C 840.609375 178.644531 842.714844 180.828125 844.78125 183.050781 C 846.847656 185.273438 848.871094 187.535156 850.855469 189.832031 C 852.839844 192.128906 854.78125 194.460938 856.679688 196.828125 C 858.574219 199.195312 860.429688 201.597656 862.238281 204.035156 C 864.046875 206.472656 865.808594 208.941406 867.527344 211.441406 C 869.246094 213.945312 870.917969 216.476562 872.542969 219.039062 C 874.167969 221.601562 875.746094 224.195312 877.273438 226.816406 C 878.800781 229.4375 880.28125 232.085938 881.714844 234.761719 C 883.148438 237.4375 884.527344 240.136719 885.859375 242.867188 C 887.191406 245.59375 888.472656 248.34375 889.703125 251.117188 C 890.9375 253.890625 892.117188 256.6875 893.242188 259.503906 C 894.371094 262.320312 895.445312 265.15625 896.46875 268.015625 C 897.492188 270.871094 898.464844 273.746094 899.378906 276.640625 C 900.296875 279.53125 901.160156 282.441406 901.972656 285.363281 C 902.78125 288.289062 903.539062 291.226562 904.242188 294.179688 C 904.941406 297.132812 905.589844 300.097656 906.183594 303.074219 C 906.773438 306.050781 907.3125 309.035156 907.796875 312.03125 C 908.277344 315.027344 908.707031 318.03125 909.078125 321.042969 C 909.449219 324.054688 909.765625 327.074219 910.027344 330.097656 C 910.289062 333.121094 910.492188 336.148438 910.644531 339.179688 C 910.792969 342.210938 910.886719 345.242188 910.921875 348.277344 C 910.960938 351.3125 910.941406 354.34375 910.867188 357.378906 C 910.792969 360.414062 910.664062 363.445312 910.476562 366.472656 C 910.292969 369.5 910.050781 372.527344 909.753906 375.546875 C 909.457031 378.566406 909.105469 381.582031 908.695312 384.585938 C 908.285156 387.59375 907.824219 390.59375 907.304688 393.582031 C 906.785156 396.574219 906.210938 399.550781 905.582031 402.523438 C 904.953125 405.492188 904.273438 408.445312 903.535156 411.390625 C 902.796875 414.335938 902.003906 417.261719 901.160156 420.179688 C 900.316406 423.09375 899.417969 425.992188 898.464844 428.871094 C 897.511719 431.753906 896.507812 434.617188 895.449219 437.460938 C 894.390625 440.304688 893.28125 443.128906 892.121094 445.933594 C 890.957031 448.734375 889.746094 451.515625 888.480469 454.277344 C 887.21875 457.035156 885.902344 459.769531 884.539062 462.480469 C 883.171875 465.191406 881.757812 467.875 880.296875 470.535156 C 878.832031 473.191406 877.320312 475.824219 875.757812 478.425781 C 874.199219 481.027344 872.589844 483.601562 870.933594 486.144531 C 869.277344 488.6875 867.578125 491.199219 865.828125 493.679688 C 864.082031 496.160156 862.289062 498.609375 860.449219 501.023438 C 858.609375 503.4375 856.730469 505.816406 854.804688 508.164062 C 852.878906 510.507812 850.910156 512.816406 848.898438 515.089844 C 846.886719 517.363281 844.835938 519.597656 842.742188 521.792969 C 840.648438 523.992188 838.515625 526.148438 836.34375 528.269531 C 834.167969 530.386719 831.957031 532.464844 829.707031 534.5 C 827.460938 536.539062 825.171875 538.535156 822.851562 540.488281 C 820.527344 542.4375 818.167969 544.347656 815.777344 546.214844 C 813.382812 548.082031 810.957031 549.902344 808.496094 551.679688 C 806.035156 553.457031 803.542969 555.1875 801.019531 556.871094 C 798.496094 558.554688 795.941406 560.191406 793.355469 561.785156 C 790.773438 563.375 788.160156 564.917969 785.519531 566.410156 C 782.875 567.90625 780.207031 569.351562 777.515625 570.746094 C 774.820312 572.144531 772.101562 573.488281 769.355469 574.785156 C 766.613281 576.082031 763.84375 577.324219 761.054688 578.519531 C 758.265625 579.714844 755.453125 580.855469 752.621094 581.945312 C 749.789062 583.035156 746.9375 584.074219 744.070312 585.058594 C 741.199219 586.046875 738.3125 586.976562 735.40625 587.855469 C 732.503906 588.734375 729.582031 589.5625 726.648438 590.332031 C 723.710938 591.105469 720.765625 591.820312 717.800781 592.484375 C 714.839844 593.144531 711.867188 593.753906 708.882812 594.308594 C 705.902344 594.859375 702.90625 595.359375 699.90625 595.800781 C 696.902344 596.246094 693.894531 596.632812 690.878906 596.964844 C 687.859375 597.296875 684.839844 597.574219 681.8125 597.792969 C 678.785156 598.015625 675.757812 598.179688 672.722656 598.289062 C 669.691406 598.398438 666.65625 598.453125 663.621094 598.449219 Z M 663.621094 158.433594 C 659.9375 158.425781 656.253906 158.523438 652.574219 158.726562 C 648.894531 158.929688 645.222656 159.238281 641.5625 159.648438 C 637.898438 160.0625 634.25 160.582031 630.617188 161.203125 C 626.984375 161.824219 623.375 162.550781 619.78125 163.378906 C 616.191406 164.210938 612.628906 165.140625 609.089844 166.175781 C 605.550781 167.207031 602.046875 168.34375 598.574219 169.578125 C 595.101562 170.8125 591.667969 172.144531 588.269531 173.578125 C 584.875 175.007812 581.523438 176.535156 578.210938 178.160156 C 574.902344 179.78125 571.644531 181.5 568.433594 183.308594 C 565.222656 185.121094 562.066406 187.019531 558.964844 189.011719 C 555.867188 191.003906 552.824219 193.082031 549.839844 195.246094 C 546.859375 197.414062 543.941406 199.660156 541.089844 201.996094 C 538.234375 204.328125 535.449219 206.742188 532.734375 209.234375 C 530.019531 211.726562 527.378906 214.292969 524.8125 216.9375 C 522.242188 219.582031 519.753906 222.296875 517.339844 225.082031 C 514.929688 227.871094 512.597656 230.722656 510.351562 233.644531 C 508.101562 236.5625 505.9375 239.542969 503.859375 242.589844 C 501.78125 245.632812 499.792969 248.734375 497.894531 251.890625 C 495.992188 255.050781 494.183594 258.261719 492.46875 261.523438 C 490.753906 264.785156 489.132812 268.09375 487.605469 271.445312 C 486.078125 274.800781 484.648438 278.195312 483.320312 281.632812 C 481.988281 285.070312 480.753906 288.542969 479.621094 292.050781 C 478.488281 295.554688 477.457031 299.09375 476.527344 302.660156 C 475.597656 306.226562 474.769531 309.816406 474.046875 313.429688 C 473.320312 317.042969 472.703125 320.675781 472.183594 324.324219 C 471.667969 327.972656 471.257812 331.632812 470.953125 335.308594 C 470.644531 338.980469 470.445312 342.660156 470.347656 346.34375 C 470.253906 350.027344 470.261719 353.710938 470.378906 357.394531 C 470.496094 361.078125 470.714844 364.757812 471.042969 368.425781 C 471.367188 372.097656 471.800781 375.757812 472.335938 379.402344 C 472.871094 383.050781 473.511719 386.679688 474.257812 390.289062 C 475 393.898438 475.847656 397.484375 476.796875 401.042969 C 477.746094 404.605469 478.796875 408.136719 479.949219 411.636719 C 481.101562 415.136719 482.355469 418.601562 483.703125 422.03125 C 485.054688 425.460938 486.503906 428.847656 488.046875 432.195312 C 489.59375 435.542969 491.230469 438.839844 492.964844 442.09375 C 494.699219 445.34375 496.523438 448.546875 498.441406 451.691406 C 500.359375 454.839844 502.367188 457.929688 504.460938 460.964844 C 506.554688 463.996094 508.734375 466.964844 511 469.875 C 513.261719 472.78125 515.609375 475.621094 518.035156 478.394531 C 520.464844 481.167969 522.96875 483.871094 525.550781 486.5 C 528.132812 489.128906 530.789062 491.683594 533.519531 494.160156 C 536.246094 496.636719 539.042969 499.035156 541.910156 501.351562 C 544.777344 503.667969 547.707031 505.902344 550.699219 508.050781 C 553.695312 510.199219 556.75 512.261719 559.859375 514.238281 C 562.972656 516.210938 566.140625 518.09375 569.359375 519.886719 C 572.578125 521.679688 575.847656 523.378906 579.164062 524.984375 C 582.484375 526.589844 585.84375 528.097656 589.25 529.511719 C 592.652344 530.921875 596.09375 532.238281 599.574219 533.453125 C 603.054688 534.667969 606.566406 535.785156 610.109375 536.796875 C 613.652344 537.8125 617.21875 538.722656 620.816406 539.535156 C 624.410156 540.34375 628.027344 541.046875 631.664062 541.652344 C 635.300781 542.253906 638.949219 542.75 642.613281 543.144531 C 646.277344 543.539062 649.953125 543.824219 653.632812 544.007812 C 657.3125 544.191406 660.996094 544.265625 664.683594 544.238281 C 668.367188 544.210938 672.050781 544.078125 675.726562 543.835938 C 679.40625 543.597656 683.074219 543.253906 686.730469 542.804688 C 690.390625 542.351562 694.03125 541.800781 697.65625 541.140625 C 701.285156 540.480469 704.890625 539.71875 708.472656 538.855469 C 712.054688 537.988281 715.609375 537.023438 719.136719 535.953125 C 722.664062 534.886719 726.15625 533.714844 729.617188 532.445312 C 733.078125 531.175781 736.5 529.808594 739.878906 528.34375 C 743.261719 526.878906 746.597656 525.320312 749.890625 523.664062 C 753.183594 522.007812 756.425781 520.257812 759.617188 518.414062 C 762.808594 516.570312 765.945312 514.640625 769.027344 512.617188 C 772.109375 510.59375 775.128906 508.488281 778.089844 506.292969 C 781.050781 504.097656 783.945312 501.816406 786.777344 499.457031 C 789.605469 497.097656 792.367188 494.65625 795.054688 492.136719 C 797.746094 489.617188 800.363281 487.023438 802.902344 484.351562 C 805.445312 481.683594 807.90625 478.945312 810.292969 476.132812 C 812.675781 473.324219 814.976562 470.445312 817.199219 467.503906 C 819.417969 464.5625 821.550781 461.558594 823.597656 458.492188 C 825.644531 455.429688 827.601562 452.308594 829.472656 449.128906 C 831.339844 445.953125 833.113281 442.726562 834.796875 439.449219 C 836.480469 436.167969 838.070312 432.84375 839.5625 429.476562 C 841.054688 426.105469 842.449219 422.695312 843.75 419.246094 C 845.046875 415.796875 846.242188 412.3125 847.339844 408.792969 C 848.4375 405.273438 849.433594 401.726562 850.328125 398.152344 C 851.222656 394.578125 852.015625 390.980469 852.703125 387.359375 C 853.390625 383.738281 853.976562 380.101562 854.453125 376.445312 C 854.933594 372.792969 855.308594 369.128906 855.578125 365.453125 C 855.847656 361.777344 856.011719 358.09375 856.070312 354.410156 C 856.128906 350.726562 856.082031 347.042969 855.929688 343.359375 C 855.777344 339.675781 855.519531 336 855.15625 332.332031 C 854.792969 328.664062 854.324219 325.011719 853.753906 321.371094 C 853.179688 317.730469 852.503906 314.109375 851.722656 310.507812 C 850.945312 306.902344 850.0625 303.328125 849.078125 299.777344 C 848.089844 296.222656 847.003906 292.703125 845.816406 289.214844 C 844.632812 285.726562 843.34375 282.273438 841.960938 278.859375 C 840.574219 275.441406 839.09375 272.070312 837.515625 268.738281 C 835.9375 265.40625 834.265625 262.125 832.5 258.890625 C 830.734375 255.65625 828.875 252.472656 826.925781 249.34375 C 824.976562 246.21875 822.941406 243.148438 820.816406 240.136719 C 818.691406 237.125 816.484375 234.175781 814.191406 231.289062 C 811.894531 228.40625 809.523438 225.589844 807.066406 222.839844 C 804.613281 220.089844 802.082031 217.414062 799.472656 214.8125 C 795.023438 210.359375 790.367188 206.136719 785.503906 202.144531 C 780.640625 198.148438 775.59375 194.402344 770.359375 190.902344 C 765.128906 187.402344 759.738281 184.167969 754.191406 181.199219 C 748.640625 178.230469 742.960938 175.539062 737.148438 173.125 C 731.335938 170.714844 725.417969 168.589844 719.398438 166.761719 C 713.375 164.929688 707.28125 163.394531 701.109375 162.164062 C 694.9375 160.929688 688.71875 160 682.457031 159.378906 C 676.195312 158.753906 669.917969 158.441406 663.621094 158.433594 Z M 663.621094 158.433594 " fill-opacity="1" fill-rule="nonzero"/><path fill="#ce926c" d="M 1014.113281 729 C 1012.332031 728.992188 1010.570312 728.8125 1008.824219 728.457031 C 1007.078125 728.101562 1005.382812 727.582031 1003.738281 726.894531 C 1002.097656 726.207031 1000.535156 725.367188 999.058594 724.371094 C 997.582031 723.378906 996.214844 722.25 994.957031 720.984375 L 800.015625 526.175781 C 799.386719 525.546875 798.789062 524.890625 798.222656 524.199219 C 797.660156 523.511719 797.128906 522.796875 796.632812 522.058594 C 796.140625 521.316406 795.683594 520.554688 795.261719 519.769531 C 794.84375 518.984375 794.460938 518.179688 794.121094 517.359375 C 793.78125 516.535156 793.480469 515.699219 793.222656 514.847656 C 792.964844 513.992188 792.75 513.132812 792.574219 512.257812 C 792.402344 511.386719 792.269531 510.503906 792.183594 509.621094 C 792.097656 508.734375 792.054688 507.84375 792.054688 506.953125 C 792.054688 506.0625 792.097656 505.175781 792.183594 504.289062 C 792.269531 503.402344 792.402344 502.523438 792.574219 501.652344 C 792.75 500.777344 792.964844 499.914062 793.222656 499.0625 C 793.480469 498.210938 793.78125 497.375 794.121094 496.550781 C 794.460938 495.730469 794.84375 494.925781 795.261719 494.140625 C 795.683594 493.355469 796.140625 492.59375 796.632812 491.851562 C 797.128906 491.109375 797.660156 490.398438 798.222656 489.707031 C 798.789062 489.019531 799.386719 488.363281 800.015625 487.730469 C 800.644531 487.101562 801.304688 486.503906 801.992188 485.941406 C 802.679688 485.375 803.394531 484.847656 804.132812 484.351562 C 804.875 483.855469 805.636719 483.398438 806.421875 482.980469 C 807.207031 482.558594 808.011719 482.179688 808.835938 481.839844 C 809.65625 481.5 810.496094 481.199219 811.347656 480.941406 C 812.199219 480.683594 813.0625 480.464844 813.933594 480.292969 C 814.808594 480.117188 815.6875 479.988281 816.574219 479.902344 C 817.460938 479.8125 818.347656 479.769531 819.238281 479.769531 C 820.128906 479.769531 821.015625 479.8125 821.902344 479.902344 C 822.789062 479.988281 823.667969 480.117188 824.542969 480.292969 C 825.414062 480.464844 826.277344 480.683594 827.128906 480.941406 C 827.980469 481.199219 828.820312 481.5 829.640625 481.839844 C 830.464844 482.179688 831.265625 482.558594 832.050781 482.980469 C 832.835938 483.398438 833.601562 483.855469 834.339844 484.351562 C 835.082031 484.847656 835.796875 485.375 836.484375 485.941406 C 837.171875 486.503906 837.832031 487.101562 838.460938 487.730469 L 1033.269531 682.675781 C 1034.207031 683.621094 1035.070312 684.628906 1035.863281 685.699219 C 1036.652344 686.773438 1037.363281 687.894531 1037.988281 689.070312 C 1038.613281 690.25 1039.148438 691.464844 1039.59375 692.71875 C 1040.042969 693.972656 1040.394531 695.253906 1040.652344 696.5625 C 1040.910156 697.867188 1041.074219 699.1875 1041.136719 700.515625 C 1041.203125 701.847656 1041.167969 703.175781 1041.039062 704.5 C 1040.90625 705.828125 1040.679688 707.136719 1040.355469 708.425781 C 1040.03125 709.71875 1039.617188 710.980469 1039.105469 712.210938 C 1038.597656 713.441406 1038 714.628906 1037.316406 715.773438 C 1036.632812 716.917969 1035.871094 718.003906 1035.027344 719.035156 C 1034.183594 720.066406 1033.269531 721.03125 1032.285156 721.925781 C 1031.300781 722.824219 1030.253906 723.640625 1029.148438 724.386719 C 1028.042969 725.128906 1026.886719 725.785156 1025.6875 726.359375 C 1024.484375 726.929688 1023.246094 727.414062 1021.972656 727.804688 C 1020.699219 728.195312 1019.402344 728.492188 1018.085938 728.691406 C 1016.769531 728.890625 1015.445312 728.996094 1014.113281 729 Z M 1014.113281 729 " fill-opacity="1" fill-rule="nonzero"/></svg>