<svg xmlns="http://www.w3.org/2000/svg" xmlns:xlink="http://www.w3.org/1999/xlink" width="794" zoomAndPan="magnify" viewBox="0 0 595.5 842.249979" height="1123" preserveAspectRatio="xMidYMid meet" version="1.0"><defs><clipPath id="d31c647d4a"><path d="M 59.488281 182.671875 L 535.316406 182.671875 L 535.316406 658.5 L 59.488281 658.5 Z M 59.488281 182.671875 " clip-rule="nonzero"/></clipPath></defs><g clip-path="url(#d31c647d4a)"><path fill="#704736" d="M 297.386719 182.671875 C 166 182.671875 59.488281 289.183594 59.488281 420.566406 C 59.488281 551.953125 166 658.464844 297.386719 658.464844 C 428.769531 658.464844 535.28125 551.953125 535.28125 420.566406 C 535.148438 289.234375 428.71875 182.804688 297.386719 182.671875 Z M 456.789062 567.898438 C 438.398438 556.605469 418.824219 547.359375 398.417969 540.324219 C 412.585938 505.535156 420.332031 468.464844 421.292969 430.910156 L 514.332031 430.910156 C 511.921875 481.929688 491.546875 530.460938 456.789062 567.898438 Z M 80.4375 430.910156 L 173.480469 430.910156 C 174.4375 468.464844 182.183594 505.535156 196.355469 540.324219 C 175.945312 547.367188 156.371094 556.605469 137.964844 567.882812 C 103.226562 530.445312 82.847656 481.929688 80.4375 430.910156 Z M 137.988281 273.222656 C 156.386719 284.492188 175.953125 293.730469 196.355469 300.773438 C 182.183594 335.578125 174.4375 372.660156 173.480469 410.226562 L 80.4375 410.226562 C 82.847656 359.199219 103.234375 310.667969 137.988281 273.222656 Z M 287.042969 296.117188 C 266.296875 295.539062 245.664062 292.742188 225.511719 287.785156 C 240.914062 257.453125 261.773438 230.222656 287.042969 207.449219 Z M 287.042969 316.800781 L 287.042969 410.226562 L 194.175781 410.226562 C 195.214844 374.691406 202.8125 339.660156 216.589844 306.890625 C 239.621094 312.875 263.253906 316.199219 287.042969 316.800781 Z M 287.042969 430.910156 L 287.042969 524.335938 C 263.230469 524.921875 239.5625 528.238281 216.507812 534.222656 C 202.785156 501.445312 195.222656 466.40625 194.207031 430.886719 Z M 287.042969 545.015625 L 287.042969 633.691406 C 261.695312 610.964844 240.796875 583.71875 225.40625 553.351562 C 245.597656 548.382812 266.257812 545.589844 287.042969 545.015625 Z M 307.726562 545.015625 C 328.46875 545.589844 349.089844 548.371094 369.246094 553.320312 C 353.839844 583.636719 332.988281 610.855469 307.726562 633.609375 Z M 307.726562 524.335938 L 307.726562 430.910156 L 400.59375 430.910156 C 399.554688 466.421875 391.949219 501.4375 378.171875 534.191406 C 355.140625 528.230469 331.507812 524.921875 307.726562 524.335938 Z M 307.726562 410.226562 L 307.726562 316.800781 C 331.507812 316.207031 355.148438 312.890625 378.171875 306.914062 C 391.949219 339.683594 399.554688 374.714844 400.59375 410.25 Z M 307.726562 296.117188 L 307.726562 207.480469 C 332.996094 230.25 353.847656 257.484375 369.253906 287.808594 C 349.097656 292.757812 328.476562 295.546875 307.726562 296.117188 Z M 337.53125 207.128906 C 376.164062 214.417969 412.09375 232.074219 441.460938 258.21875 C 425.121094 267.851562 407.820312 275.757812 389.84375 281.808594 C 376.335938 254.382812 358.695312 229.195312 337.53125 207.128906 Z M 204.917969 281.792969 C 186.949219 275.734375 169.648438 267.839844 153.300781 258.226562 C 182.667969 232.078125 218.597656 214.421875 257.242188 207.136719 C 236.074219 229.195312 218.425781 254.367188 204.917969 281.792969 Z M 204.917969 559.3125 C 218.433594 586.753906 236.097656 611.941406 257.277344 634.003906 C 218.613281 626.726562 182.652344 609.054688 153.273438 582.886719 C 169.628906 573.257812 186.933594 565.355469 204.917969 559.3125 Z M 389.84375 559.3125 C 407.828125 565.363281 425.136719 573.273438 441.484375 582.902344 C 412.089844 609.078125 376.128906 626.75 337.449219 634.019531 C 358.652344 611.953125 376.320312 586.753906 389.84375 559.304688 Z M 421.292969 410.234375 C 420.339844 372.667969 412.585938 335.585938 398.410156 300.789062 C 418.808594 293.746094 438.375 284.5 456.769531 273.222656 C 491.53125 310.660156 511.921875 359.199219 514.332031 410.234375 Z M 421.292969 410.234375 " fill-opacity="1" fill-rule="nonzero"/></g></svg>